# Exported from Nomad Sculpt
o Item
usemtl Item
v 13.49806881 0.000001 -5.92927265 0.421868503 0.096332177 0.343806207
v 11.49808883 0.000001 -5.92030478 0.421868503 0.096332177 0.343806207
v 13.49806881 2.000000953 -5.92927265 0.421868503 0.096332177 0.343806207
v 13.52497196 0.000001 0.070666864 0.421868503 0.096332177 0.343806207
v 11.52499198 0.000001 0.079634666 0.421868503 0.096332177 0.343806207
v 13.51600456 2.000000953 -1.92931294 0.421868503 0.096332177 0.343806207
v 11.49808883 2.000000953 -5.92030478 0.421868503 0.096332177 0.343806207
v 11.51602459 2.000000953 -1.92034519 0.421868503 0.096332177 0.343806207
v 13.51600456 4.000000953 -1.92931294 0.421868503 0.096332177 0.343806207
v 13.52497196 10.00000095 0.070666864 0.421868503 0.096332177 0.343806207
v 11.52499198 10.00000095 0.079634666 0.421868503 0.096332177 0.343806207
v 13.51600456 6.000000953 -1.92931294 0.421868503 0.096332177 0.343806207
v 11.51602459 6.000000953 -1.92034519 0.421868503 0.096332177 0.343806207
v 11.51602459 4.000000953 -1.92034519 0.421868503 0.096332177 0.343806207
v 13.49806881 4.000000953 -5.92927265 0.421868503 0.096332177 0.343806207
v 13.50703620 6.000000953 -3.92929268 0.421868503 0.096332177 0.343806207
v 11.50705623 6.000000953 -3.92032504 0.421868503 0.096332177 0.343806207
v 13.51600456 8.000000953 -1.92931294 0.421868503 0.096332177 0.343806207
v 13.50703620 8.000000953 -3.92929268 0.421868503 0.096332177 0.343806207
v 13.49806881 10.00000095 -5.92927265 0.421868503 0.096332177 0.343806207
v 11.49808883 10.00000095 -5.92030478 0.421868503 0.096332177 0.343806207
v 11.51602459 8.000000953 -1.92034519 0.421868503 0.096332177 0.343806207
v 11.49808883 4.000000953 -5.92030478 0.421868503 0.096332177 0.343806207
v 11.50705623 8.000000953 -3.92032504 0.421868503 0.096332177 0.343806207
vn 0.634431839 -0.76199687 -0.12983535
vn -0.81255466 -0.48665863 -0.3208091
vn 0.574755728 0.577350199 -0.57993323
vn 0.694811284 -0.20749973 0.688608169
vn -0.78634018 -0.47285676 0.397587388
vn 0.823546886 0.549437105 -0.14103051
vn -0.43739823 0.872878849 -0.21625303
vn -0.90588248 0.301503032 -0.29744416
vn 0.868818461 -0.34815526 -0.35205454
vn 0.789873957 0.472856700 0.390519708
vn -0.64967221 0.217633724 0.728396713
vn 0.962541401 0.240765050 -0.12468447
vn -0.96416074 0.120367266 -0.23644426
vn -0.77220094 -0.61721343 -0.15084241
vn 0.766495347 -0.51214004 -0.38755345
vn 0.874826967 0.218212083 0.432505905
vn -0.87189168 0.436424166 0.222123801
vn 0.663670778 -0.33333331 -0.6696493
vn 0.963620841 -0.24076505 0.116047665
vn 0.663670778 0.333333313 -0.6696493
vn -0.72338569 0.618848860 -0.30616868
vn -0.91369063 -0.36512801 -0.17846893
vn -0.69132632 -0.22941573 -0.68515432
vn -0.9112348 -0.18256401 0.369217664
s 0
f 1//1 2//2 3//3
f 4//4 5//5 1//1
f 1//1 5//5 2//2
f 6//6 4//4 1//1
f 6//6 1//1 3//3
f 3//3 2//2 7//7
f 7//7 2//2 8//8
f 8//8 2//2 5//5
f 7//7 6//6 3//3
f 8//8 6//6 7//7
f 6//6 8//8 9//9
f 9//9 4//4 6//6
f 10//10 11//11 4//4
f 4//4 11//11 5//5
f 12//12 10//10 4//4
f 12//12 4//4 9//9
f 11//11 13//13 5//5
f 5//5 13//13 14//14
f 5//5 14//14 8//8
f 9//9 8//8 14//14
f 9//9 14//14 15//15
f 15//15 16//16 9//9
f 9//9 16//16 12//12
f 13//13 12//12 17//17
f 17//17 12//12 16//16
f 12//12 13//13 18//18
f 18//18 10//10 12//12
f 18//18 19//19 10//10
f 10//10 19//19 20//20
f 20//20 21//21 10//10
f 10//10 21//21 11//11
f 13//13 11//11 22//22
f 22//22 11//11 21//21
f 18//18 13//13 22//22
f 17//17 14//14 13//13
f 15//15 14//14 23//23
f 17//17 23//23 14//14
f 23//23 20//20 15//15
f 20//20 19//19 15//15
f 15//15 19//19 16//16
f 17//17 16//16 24//24
f 24//24 16//16 19//19
f 24//24 23//23 17//17
f 24//24 21//21 23//23
f 21//21 20//20 23//23
f 22//22 21//21 24//24
f 24//24 19//19 22//22
f 22//22 19//19 18//18
o Item_1
usemtl Item_1
v 11.48676872 10.00000095 -7.9296174 0 0.357001155 0.570303738
v 11.50040054 10.00000095 -5.92966366 0 0.357001155 0.570303738
v 11.48676872 0.000001 -7.9296174 0 0.357001155 0.570303738
v 9.486814498 6.000000953 -7.91598606 0 0.357001155 0.570303738
v 9.486814498 8.000000953 -7.91598606 0 0.357001155 0.570303738
v 5.486907482 10.00000095 -7.8887229 0 0.357001155 0.570303738
v 11.50040054 0.000001 -5.92966366 0 0.357001155 0.570303738
v 9.500446319 6.000000953 -5.91603231 0 0.357001155 0.570303738
v 9.500446319 8.000000953 -5.91603231 0 0.357001155 0.570303738
v 5.500539302 10.00000095 -5.88876915 0 0.357001155 0.570303738
v 9.486814498 4.000000953 -7.91598606 0 0.357001155 0.570303738
v 9.486814498 2.000000953 -7.91598606 0 0.357001155 0.570303738
v 5.486907482 0.000001 -7.8887229 0 0.357001155 0.570303738
v 5.500539302 0.000001 -5.88876915 0 0.357001155 0.570303738
v 5.486907482 4.000000953 -7.8887229 0 0.357001155 0.570303738
v 5.486907482 6.000000953 -7.8887229 0 0.357001155 0.570303738
v 5.486907482 8.000000953 -7.8887229 0 0.357001155 0.570303738
v 5.500539302 8.000000953 -5.88876915 0 0.357001155 0.570303738
v 5.500539302 6.000000953 -5.88876915 0 0.357001155 0.570303738
v 9.500446319 4.000000953 -5.91603231 0 0.357001155 0.570303738
v 9.500446319 2.000000953 -5.91603231 0 0.357001155 0.570303738
v 5.486907482 2.000000953 -7.8887229 0 0.357001155 0.570303738
v 5.500539302 2.000000953 -5.88876915 0 0.357001155 0.570303738
v 5.500539302 4.000000953 -5.88876915 0 0.357001155 0.570303738
vn 0.460517376 0.279742986 -0.84241778
vn 0.682987272 0.407309383 0.606323063
vn 0.646495819 -0.39055645 -0.65536928
vn -0.09576154 0.178168848 -0.97932917
vn -0.27271339 -0.53450948 -0.79995441
vn -0.25228035 0.744207978 -0.61847323
vn 0.437814921 -0.25913778 0.860909879
vn -0.19288027 0.398007988 0.896876156
vn -0.14977448 -0.31232971 0.938092708
vn -0.16325076 0.507076084 0.846299707
vn -0.33786944 -0.66666675 -0.66437924
vn -0.16254795 0.312329709 -0.93596393
vn -0.17477171 -0.50707608 -0.84399575
vn -0.24382636 -0.74420798 0.621854722
vn -0.22415638 -0.4364242 -0.87137133
vn -0.41102132 0.816496551 -0.40545624
vn -0.33786944 -0.66666675 -0.66437924
vn -0.40545624 -0.81649655 0.411021322
vn -0.21225767 0.436424195 0.874345898
vn -0.14977448 -0.31232971 0.938092708
vn -0.26178363 0.53450948 0.803597569
vn -0.41102132 0.816496551 -0.40545624
vn -0.32878172 0.666666746 0.668923139
vn -0.40545624 -0.81649655 0.411021322
s 0
f 25//25 26//26 27//27
f 27//27 28//28 25//25
f 25//25 28//28 29//29
f 25//25 29//29 30//30
f 30//30 26//26 25//25
f 27//27 26//26 31//31
f 26//26 32//32 31//31
f 32//32 26//26 33//33
f 33//33 26//26 34//34
f 34//34 26//26 30//30
f 35//35 27//27 36//36
f 36//36 27//27 37//37
f 27//27 35//35 28//28
f 31//31 38//38 27//27
f 27//27 38//38 37//37
f 28//28 35//35 39//39
f 28//28 39//39 40//40
f 40//40 32//32 28//28
f 28//28 32//32 29//29
f 30//30 29//29 41//41
f 29//29 32//32 33//33
f 33//33 42//42 29//29
f 29//29 42//42 41//41
f 41//41 42//42 30//30
f 30//30 42//42 34//34
f 33//33 34//34 42//42
f 43//43 32//32 40//40
f 31//31 32//32 44//44
f 32//32 43//43 44//44
f 31//31 44//44 45//45
f 45//45 38//38 31//31
f 37//37 38//38 46//46
f 46//46 38//38 47//47
f 47//47 38//38 45//45
f 36//36 37//37 46//46
f 46//46 45//45 36//36
f 36//36 45//45 35//35
f 35//35 45//45 44//44
f 44//44 48//48 35//35
f 35//35 48//48 39//39
f 39//39 48//48 40//40
f 40//40 48//48 43//43
f 44//44 43//43 48//48
f 47//47 45//45 46//46
o Item_2
usemtl Item_2
v 7.507096767 0.000001 -3.90238929 0.213148787 0.116262979 0.351557105
v 9.507076263 0.000001 -3.91135716 0.213148787 0.116262979 0.351557105
v 7.507096767 2.000000953 -3.90238929 0.213148787 0.116262979 0.351557105
v 7.516064643 2.000000953 -1.90240955 0.213148787 0.116262979 0.351557105
v 7.516064643 0.000001 -1.90240955 0.213148787 0.116262979 0.351557105
v 5.525052547 0.000001 0.106538064 0.213148787 0.116262979 0.351557105
v 5.498148918 0.000001 -5.89340162 0.213148787 0.116262979 0.351557105
v 11.49808883 0.000001 -5.92030478 0.213148787 0.116262979 0.351557105
v 9.507076263 2.000000953 -3.91135716 0.213148787 0.116262979 0.351557105
v 9.516044616 0.000001 -1.91137731 0.213148787 0.116262979 0.351557105
v 11.52499198 0.000001 0.079634666 0.213148787 0.116262979 0.351557105
v 5.498148918 2.000000953 -5.89340162 0.213148787 0.116262979 0.351557105
v 5.525052547 2.000000953 0.106538064 0.213148787 0.116262979 0.351557105
v 11.52499198 2.000000953 0.079634666 0.213148787 0.116262979 0.351557105
v 9.516044616 2.000000953 -1.91137731 0.213148787 0.116262979 0.351557105
v 11.49808883 2.000000953 -5.92030478 0.213148787 0.116262979 0.351557105
vn 0.241302400 -0.96309084 0.119286514
vn -0.18092501 -0.9128812 0.365943014
vn 0.184199392 0.912881076 0.364305794
vn 0.364305794 0.912881076 -0.18419939
vn 0.330340743 -0.66666663 -0.66815466
vn -0.57340419 -0.76626438 0.289907902
vn -0.33631927 -0.66666663 -0.66516542
vn 0.617455363 -0.72200555 -0.31218094
vn -0.24022298 0.963090837 0.121445648
vn -0.36594301 -0.9128812 -0.18092501
vn 0.312180936 -0.72200555 0.617455363
vn -0.62023002 0.722005546 -0.30663124
vn -0.30663124 0.722005546 0.620230019
vn 0.575980901 0.766264379 0.284754157
vn -0.33631927 0.666666626 -0.66516542
vn 0.330340743 0.666666626 -0.66815466
s 0
f 49//49 50//50 51//51
f 51//51 52//52 49//49
f 49//49 52//52 53//53
f 53//53 54//54 49//49
f 49//49 54//54 55//55
f 49//49 55//55 56//56
f 56//56 50//50 49//49
f 51//51 50//50 57//57
f 50//50 58//58 57//57
f 59//59 58//58 50//50
f 59//59 50//50 56//56
f 57//57 60//60 51//51
f 51//51 60//60 61//61
f 51//51 61//61 52//52
f 52//52 61//61 62//62
f 52//52 62//62 63//63
f 52//52 63//63 53//53
f 53//53 58//58 54//54
f 53//53 63//63 58//58
f 54//54 59//59 61//61
f 54//54 58//58 59//59
f 55//55 54//54 60//60
f 60//60 54//54 61//61
f 56//56 55//55 64//64
f 64//64 55//55 60//60
f 59//59 56//56 62//62
f 62//62 56//56 64//64
f 61//61 59//59 62//62
f 62//62 64//64 57//57
f 63//63 62//62 57//57
f 57//57 58//58 63//63
f 57//57 64//64 60//60
