<?xml version="1.0" encoding="UTF-8" standalone="no"?>
<!DOCTYPE svg PUBLIC "-//W3C//DTD SVG 1.1//EN" "http://www.w3.org/Graphics/SVG/1.1/DTD/svg11.dtd">
<!-- Created with Vectornator (http://vectornator.io/) -->
<svg height="100%" stroke-miterlimit="10" style="fill-rule:nonzero;clip-rule:evenodd;stroke-linecap:round;stroke-linejoin:round;" version="1.1" viewBox="0 0 512 512" width="100%" xml:space="preserve" xmlns="http://www.w3.org/2000/svg" xmlns:xlink="http://www.w3.org/1999/xlink">
<defs/>
<g id="Layer-1"/>
<g id="Layer-2"/>
<g id="Layer-3">
<path d="" fill="#c6168d" fill-rule="nonzero" opacity="1" stroke="#c6168d" stroke-linecap="butt" stroke-linejoin="round" stroke-width="2"/>
<path d="M207.846 20.6719L103.923 80.6719L103.923 120.672L173.205 80.6719L173.205 120.672L103.923 160.672L103.923 200.672L173.205 160.672L173.205 200.672L103.923 240.672L103.923 280.672L207.846 220.672L207.846 20.6719Z" fill="#00a1c7" fill-rule="nonzero" opacity="1" stroke="#00a1c7" stroke-linecap="butt" stroke-linejoin="round" stroke-width="2"/>
<path d="M220.644 20L220.644 140L289.925 180L289.925 220L220.644 180L220.644 220L324.769 281.344L324.582 80L220.644 20ZM255.3 80L289.925 100L289.925 140L255.3 120L255.3 80Z" fill="#662d91" fill-rule="nonzero" opacity="1" stroke="#662d91" stroke-linecap="butt" stroke-linejoin="round" stroke-width="2"/>
<path d="M213.862 231L109.924 291L213.862 351L317.768 291L213.862 231ZM208.862 271L243.487 291L208.862 311L174.205 291L208.862 271Z" fill="#c6168d" fill-rule="nonzero" opacity="1" stroke="#c6168d" stroke-linecap="butt" stroke-linejoin="round" stroke-width="2"/>
</g>
</svg>
